<?xml version="1.0" encoding="utf-8"?>
<!-- Svg Vector Icons : http://www.onlinewebfonts.com/icon -->
<!DOCTYPE svg PUBLIC "-//W3C//DTD SVG 1.1//EN" "http://www.w3.org/Graphics/SVG/1.1/DTD/svg11.dtd">
<svg version="1.1" xmlns="http://www.w3.org/2000/svg" xmlns:xlink="http://www.w3.org/1999/xlink" x="0px" y="0px" viewBox="0 0 256 256" enable-background="new 0 0 256 256" xml:space="preserve">
<metadata> Svg Vector Icons : http://www.onlinewebfonts.com/icon </metadata>
<g><g><g><path fill="#000000" d="M16.3,11.1c-2.8,1.3-4.1,2.6-5.4,5.5c-1,2.1-1,2.4-1,111.4v109.3l1.1,2.4c1.3,2.8,2.6,4.1,5.5,5.4c2.1,1,2.4,1,111.4,1h109.3l2.4-1.1c2.8-1.3,4.1-2.6,5.4-5.5c1-2.1,1-2.4,1-111.4s0-109.3-1-111.4c-1.3-2.8-2.5-4.1-5.4-5.5l-2.4-1.1H128H18.7L16.3,11.1z M234.6,16.5c2.3,1.2,4.1,3.1,5,5.3c0.7,1.6,0.8,12.8,0.8,106.2s-0.1,104.6-0.8,106.2c-0.9,2.3-2.8,4.2-5.1,5.3c-1.8,0.8-5.7,0.9-106.4,0.9c-93.4,0-104.7-0.1-106.2-0.8c-2.2-0.9-4.1-2.7-5.3-5c-0.9-1.7-0.9-4.4-0.9-106.7c0-115.8-0.2-106.3,3-109.4c3.3-3.1-6.5-2.9,109.3-2.9C230.3,15.6,232.9,15.6,234.6,16.5z"/><path fill="#000000" d="M111.4,80.4c-0.1,0.2-2.6,17.9-5.5,39.3c-2.9,21.3-5.5,38.7-5.6,38.5c-0.2-0.2-4.1-8.6-8.8-18.7l-8.5-18.3L64.3,121L45.7,121v4.6v4.7l6,0.3c3.3,0.2,10.2,0.3,15.4,0.3l9.4,0l10.8,22.3l10.8,22.3l3.9-0.1l4-0.1l6.7-42.8c3.7-23.6,6.7-42.8,6.7-42.9c0,0,20.4-0.1,45.4-0.1h45.4v-4.7V80H161C133.8,80,111.5,80.2,111.4,80.4z"/><path fill="#000000" d="M53.3,84c-3,0.5-5.4,1.2-5.4,1.5c0,0.2,0.9,0.6,2.1,0.7c1.2,0.1,2.3,0.6,2.5,1c0.4,0.6-0.4,3.9-3.1,13.4c-2,6.9-3.6,12.9-3.6,13.2c0,0.4,0.7,0.6,2.4,0.5l2.4-0.1l1.5-4.5c4.1-12.6,16.3-26.2,19.3-21.5c0.4,0.6-0.2,3-2.6,10.3c-4,12.3-4.4,13.8-3.4,15.2c1.7,2.6,6.4,0.5,9.9-4.5c2-2.8,1-2.9-1.5-0.1c-4,4.6-4.1,3.2-0.4-8.2c1.7-5.2,3.2-10.3,3.4-11.4c0.6-2.8-0.1-5-1.8-5.9c-1.8-0.9-3.1-0.9-5.6,0.2c-3.2,1.5-5.3,3.3-9.5,8.7c-2.1,2.7-3.9,4.8-4,4.8c0-0.1,0.8-3.4,1.9-7.3c1.2-4.2,1.8-7.1,1.5-7.1C58.9,83,56.2,83.4,53.3,84z"/><path fill="#000000" d="M187.6,112.1c-4.4,1-10.8,7-16.1,14.9c-1.7,2.6-3.2,4.7-3.3,4.7c0-0.1-0.8-2.6-1.6-5.5c-0.8-3-2.1-6.5-2.7-7.8c-1.6-3.2-4.2-6.3-5.4-6.3c-0.5,0-4.4,0.6-8.7,1.4c-4.3,0.8-8,1.4-8.2,1.4c-0.2,0-0.4,0.6-0.4,1.3v1.3l3.7,0c6.3,0,9.5,2.4,11.3,8.5c0.5,1.5,1.7,6,2.7,9.9l1.8,7.1l-1.8,3.5c-4.6,8.9-14,21.4-16.2,21.4c-0.5,0-2-0.8-3.4-1.9c-3.3-2.5-5.5-2.6-7.9-0.3c-1.3,1.3-1.6,2-1.6,3.4c0,5.5,5.8,8,11.7,5.1c4.4-2.2,11.4-10.9,18.5-22.8c0.8-1.5,1.7-2.5,1.9-2.3c0.1,0.2,1.1,3.8,2.1,8.1c2.7,11.9,3.7,14.6,5.9,16.6c1.6,1.4,2.3,1.7,3.9,1.7c2.7,0,6.3-2.1,10.2-6.2c2.8-2.8,7.9-9.6,7.4-10c0-0.1-0.6-0.4-1.2-0.7c-0.9-0.5-1.2-0.3-2.7,2c-1.9,2.9-5.3,6.2-7.1,6.9c-1.5,0.6-2.8,0-3.7-1.9c-0.7-1.3-7.3-27.6-7.3-29c0-1.2,6.7-10.5,9.4-13c3.2-3,4.3-3.2,8.8-1.9c4.7,1.4,8.2,0,8.9-3.3C197.2,114,192.8,110.8,187.6,112.1z"/></g></g></g>
</svg>