<?xml version="1.0" encoding="utf-8"?>
<!-- Generator: Adobe Illustrator 25.4.1, SVG Export Plug-In . SVG Version: 6.00 Build 0)  -->
<svg version="1.1" id="Layer_1" xmlns="http://www.w3.org/2000/svg" xmlns:xlink="http://www.w3.org/1999/xlink" x="0px" y="0px"
	 viewBox="0 0 1000.05 723.95" style="enable-background:new 0 0 1000.05 723.95;" xml:space="preserve">
<style type="text/css">
	.st0{fill:#444444;}
	.st1{fill:#467AFF;}
	.st2{fill:#EAEAF0;}
</style>
<g>
	<g>
		<g>
			<path class="st0" d="M974.03,433.57c-0.38,0-0.77-0.15-1.06-0.44c-0.59-0.59-0.59-1.54,0-2.12l6.71-6.71l-6.75-6.75
				c-0.59-0.59-0.59-1.54,0-2.12s1.54-0.59,2.12,0l8.87,8.87l-8.83,8.83C974.8,433.42,974.42,433.57,974.03,433.57z"/>
		</g>
		<g>
			<path class="st0" d="M981.81,425.8H84.22c-0.83,0-1.5-0.67-1.5-1.5s0.67-1.5,1.5-1.5h897.58c0.83,0,1.5,0.67,1.5,1.5
				S982.63,425.8,981.81,425.8z"/>
		</g>
	</g>
	<g>
		<g>
			<path class="st0" d="M526.53,12.87c-0.38,0-0.77-0.15-1.06-0.44c-0.59-0.59-0.59-1.54,0-2.12l8.87-8.87l8.83,8.83
				c0.59,0.59,0.59,1.54,0,2.12c-0.59,0.59-1.54,0.59-2.12,0l-6.71-6.71l-6.75,6.75C527.3,12.73,526.92,12.87,526.53,12.87z"/>
		</g>
		<g>
			<path class="st0" d="M534.34,609.72c-0.83,0-1.5-0.67-1.5-1.5V3.56c0-0.83,0.67-1.5,1.5-1.5s1.5,0.67,1.5,1.5v604.66
				C535.84,609.05,535.17,609.72,534.34,609.72z"/>
		</g>
	</g>
	<g>
		<path d="M178.45,389.61l-12.56,18.88h12.56v4.72h-19.04v-4.32l12.48-18.88h-12.48v-4.72h19.04V389.61z"/>
		<path d="M199.41,389.81h-10.6v7h9.4v4.44h-9.4v7.4h10.6v4.56h-16.2v-27.96h16.2V389.81z"/>
		<path d="M214.97,385.29c6.72,0,10.08,3.88,10.08,8.56c0,3.4-1.88,6.84-6.36,8.04l6.68,11.32h-6.48l-6.16-10.88h-2.64v10.88h-5.6
			v-27.92H214.97z M214.77,389.93h-4.68v8.2h4.68c3.12,0,4.52-1.64,4.52-4.16C219.29,391.49,217.89,389.93,214.77,389.93z"/>
		<path d="M243.09,413.49c-7.88,0-14.32-5.92-14.32-14.32c0-8.36,6.44-14.28,14.32-14.28c7.96,0,14.28,5.92,14.28,14.28
			C257.37,407.57,251.01,413.49,243.09,413.49z M243.09,408.49c5.04,0,8.52-3.64,8.52-9.32c0-5.68-3.48-9.24-8.52-9.24
			c-5.08,0-8.56,3.56-8.56,9.24C234.53,404.85,238.01,408.49,243.09,408.49z"/>
	</g>
	<g>
		<path d="M606.31,389.61l-12.56,18.88h12.56v4.72h-19.04v-4.32l12.48-18.88h-12.48v-4.72h19.04V389.61z"/>
		<path d="M627.27,389.81h-10.6v7h9.4v4.44h-9.4v7.4h10.6v4.56h-16.2v-27.96h16.2V389.81z"/>
		<path d="M642.83,385.29c6.72,0,10.08,3.88,10.08,8.56c0,3.4-1.88,6.84-6.36,8.04l6.68,11.32h-6.48l-6.16-10.88h-2.64v10.88h-5.6
			v-27.92H642.83z M642.63,389.93h-4.68v8.2h4.68c3.12,0,4.52-1.64,4.52-4.16C647.15,391.49,645.75,389.93,642.63,389.93z"/>
		<path d="M670.95,413.49c-7.88,0-14.32-5.92-14.32-14.32c0-8.36,6.44-14.28,14.32-14.28c7.96,0,14.28,5.92,14.28,14.28
			C685.22,407.57,678.86,413.49,670.95,413.49z M670.95,408.49c5.04,0,8.52-3.64,8.52-9.32c0-5.68-3.48-9.24-8.52-9.24
			c-5.08,0-8.56,3.56-8.56,9.24C662.39,404.85,665.87,408.49,670.95,408.49z"/>
	</g>
	<g>
		<path d="M754.49,687.78c8.24,0,10.8,6.32,10.8,14.76c0,8.52-2.56,14.88-10.8,14.88s-10.8-6.36-10.8-14.88
			C743.69,694.1,746.25,687.78,754.49,687.78z M754.49,692.98c-4.72,0-5.28,4.56-5.28,9.56c0,5.2,0.56,9.68,5.28,9.68
			c4.72,0,5.28-4.48,5.28-9.68C759.77,697.54,759.21,692.98,754.49,692.98z"/>
	</g>
	<g>
		<path d="M584.55,687.78c8.24,0,10.8,6.32,10.8,14.76c0,8.52-2.56,14.88-10.8,14.88s-10.8-6.36-10.8-14.88
			C573.75,694.1,576.31,687.78,584.55,687.78z M584.55,692.98c-4.72,0-5.28,4.56-5.28,9.56c0,5.2,0.56,9.68,5.28,9.68
			c4.72,0,5.28-4.48,5.28-9.68C589.83,697.54,589.27,692.98,584.55,692.98z"/>
	</g>
	<g>
		<path d="M265.09,687.78c8.24,0,10.8,6.32,10.8,14.76c0,8.52-2.56,14.88-10.8,14.88c-8.24,0-10.8-6.36-10.8-14.88
			C254.3,694.1,256.85,687.78,265.09,687.78z M265.09,692.98c-4.72,0-5.28,4.56-5.28,9.56c0,5.2,0.56,9.68,5.28,9.68
			s5.28-4.48,5.28-9.68C270.37,697.54,269.81,692.98,265.09,692.98z"/>
	</g>
	<g>
		<path d="M794.24,389.61l-12.56,18.88h12.56v4.72h-19.04v-4.32l12.48-18.88h-12.48v-4.72h19.04V389.61z"/>
		<path d="M815.2,389.81h-10.6v7h9.4v4.44h-9.4v7.4h10.6v4.56H799v-27.96h16.2V389.81z"/>
		<path d="M830.76,385.29c6.72,0,10.08,3.88,10.08,8.56c0,3.4-1.88,6.84-6.36,8.04l6.68,11.32h-6.48l-6.16-10.88h-2.64v10.88h-5.6
			v-27.92H830.76z M830.56,389.93h-4.68v8.2h4.68c3.12,0,4.52-1.64,4.52-4.16C835.08,391.49,833.68,389.93,830.56,389.93z"/>
		<path d="M858.88,413.49c-7.88,0-14.32-5.92-14.32-14.32c0-8.36,6.44-14.28,14.32-14.28c7.96,0,14.28,5.92,14.28,14.28
			C873.16,407.57,866.8,413.49,858.88,413.49z M858.88,408.49c5.04,0,8.52-3.64,8.52-9.32c0-5.68-3.48-9.24-8.52-9.24
			c-5.08,0-8.56,3.56-8.56,9.24C850.32,404.85,853.8,408.49,858.88,408.49z"/>
	</g>
	<g>
		<path d="M837.21,52.18h-2.56l0.8-4.6h2.56l0.2-1.12c0.96-5.44,4.44-7.96,10.64-7.8l-0.8,4.72c-2.68-0.08-3.8,0.8-4.24,3.28
			l-0.16,0.92h3.88l-0.8,4.6h-3.88l-3.12,17.56h-5.64L837.21,52.18z"/>
		<path d="M855.69,77.62c-3.24-3.72-4.88-9.2-4.88-15.4c0-11.04,5-22.92,13.36-29.44h5.64l-0.08,0.52
			c-8.12,6.64-13.44,17.44-13.44,27.92c0,5.96,1.72,11.56,5.12,15.84l-0.08,0.56H855.69z"/>
		<path d="M875.57,62.9l-5.28,6.84h-6l9.2-11.12l-5.36-11.04h6.32l3.32,6.84l5.28-6.84h6l-9.24,11.04l5.4,11.12h-6.32L875.57,62.9z"
			/>
		<path d="M891.21,77.62h-5.68l0.12-0.56c7.84-6.84,12.72-17.2,12.72-27.32c0-6.12-1.76-12.04-5.64-16.44l0.08-0.52h5.68
			c3.64,3.88,5.36,9.68,5.36,16.04C903.85,59.5,899.01,71.18,891.21,77.62z"/>
	</g>
	<g>
		<path d="M10.4,696.52H7.84l0.8-4.6h2.56l0.2-1.12c0.96-5.44,4.44-7.96,10.64-7.8l-0.8,4.72c-2.68-0.08-3.8,0.8-4.24,3.28
			l-0.16,0.92h3.88l-0.8,4.6h-3.88l-3.12,17.56H7.28L10.4,696.52z"/>
		<path d="M28.88,721.95c-3.24-3.72-4.88-9.2-4.88-15.4c0-11.04,5-22.92,13.36-29.44H43l-0.08,0.52
			c-8.12,6.64-13.44,17.44-13.44,27.92c0,5.96,1.72,11.56,5.12,15.84l-0.08,0.56H28.88z"/>
		<path d="M48.76,707.24l-5.28,6.84h-6l9.2-11.12l-5.36-11.04h6.32l3.32,6.84l5.28-6.84h6L53,702.96l5.4,11.12h-6.32L48.76,707.24z"
			/>
		<path d="M64.4,721.95h-5.68l0.12-0.56c7.84-6.84,12.72-17.2,12.72-27.32c0-6.12-1.76-12.04-5.64-16.44l0.08-0.52h5.68
			c3.64,3.88,5.36,9.68,5.36,16.04C77.04,703.84,72.2,715.51,64.4,721.95z"/>
	</g>
	<g>
		<path d="M980.61,401.91l-5.28,6.84h-6l9.2-11.12l-5.36-11.04h6.32l3.32,6.84l5.28-6.84h6l-9.24,11.04l5.4,11.12h-6.32
			L980.61,401.91z"/>
	</g>
	<g>
		<path d="M496.31,4.86h6.28l2.96,15.48l8.6-15.48h5.96L500.63,37.5h-5.96l6.72-11.04L496.31,4.86z"/>
	</g>
	<g>
		<g>
			<path class="st0" d="M754.49,435.14c-0.83,0-1.5-0.67-1.5-1.5v-9.34c0-0.83,0.67-1.5,1.5-1.5s1.5,0.67,1.5,1.5v9.34
				C755.99,434.47,755.32,435.14,754.49,435.14z"/>
		</g>
		<g>
			<path class="st0" d="M754.49,645.53c-0.83,0-1.5-0.67-1.5-1.5v-17.53c0-0.83,0.67-1.5,1.5-1.5s1.5,0.67,1.5,1.5v17.53
				C755.99,644.85,755.32,645.53,754.49,645.53z M754.49,610.46c-0.83,0-1.5-0.67-1.5-1.5v-17.53c0-0.83,0.67-1.5,1.5-1.5
				s1.5,0.67,1.5,1.5v17.53C755.99,609.79,755.32,610.46,754.49,610.46z M754.49,575.4c-0.83,0-1.5-0.67-1.5-1.5v-17.53
				c0-0.83,0.67-1.5,1.5-1.5s1.5,0.67,1.5,1.5v17.53C755.99,574.73,755.32,575.4,754.49,575.4z M754.49,540.33
				c-0.83,0-1.5-0.67-1.5-1.5V521.3c0-0.83,0.67-1.5,1.5-1.5s1.5,0.67,1.5,1.5v17.53C755.99,539.66,755.32,540.33,754.49,540.33z
				 M754.49,505.27c-0.83,0-1.5-0.67-1.5-1.5v-17.53c0-0.83,0.67-1.5,1.5-1.5s1.5,0.67,1.5,1.5v17.53
				C755.99,504.6,755.32,505.27,754.49,505.27z M754.49,470.21c-0.83,0-1.5-0.67-1.5-1.5v-17.53c0-0.83,0.67-1.5,1.5-1.5
				s1.5,0.67,1.5,1.5v17.53C755.99,469.54,755.32,470.21,754.49,470.21z"/>
		</g>
		<g>
			<path class="st0" d="M754.49,672.4c-0.83,0-1.5-0.67-1.5-1.5v-9.34c0-0.83,0.67-1.5,1.5-1.5s1.5,0.67,1.5,1.5v9.34
				C755.99,671.73,755.32,672.4,754.49,672.4z"/>
		</g>
	</g>
	<g>
		<g>
			<path class="st0" d="M613.5,708.44h-9.34c-0.83,0-1.5-0.67-1.5-1.5s0.67-1.5,1.5-1.5h9.34c0.83,0,1.5,0.67,1.5,1.5
				S614.33,708.44,613.5,708.44z"/>
		</g>
		<g>
			<path class="st0" d="M711.77,708.44h-16.38c-0.83,0-1.5-0.67-1.5-1.5s0.67-1.5,1.5-1.5h16.38c0.83,0,1.5,0.67,1.5,1.5
				S712.6,708.44,711.77,708.44z M679.01,708.44h-16.38c-0.83,0-1.5-0.67-1.5-1.5s0.67-1.5,1.5-1.5h16.38c0.83,0,1.5,0.67,1.5,1.5
				S679.84,708.44,679.01,708.44z M646.26,708.44h-16.38c-0.83,0-1.5-0.67-1.5-1.5s0.67-1.5,1.5-1.5h16.38c0.83,0,1.5,0.67,1.5,1.5
				S647.09,708.44,646.26,708.44z"/>
		</g>
		<g>
			<path class="st0" d="M737.49,708.44h-9.34c-0.83,0-1.5-0.67-1.5-1.5s0.67-1.5,1.5-1.5h9.34c0.83,0,1.5,0.67,1.5,1.5
				S738.32,708.44,737.49,708.44z"/>
		</g>
	</g>
	<g>
		<g>
			<path class="st0" d="M584.55,435.14c-0.83,0-1.5-0.67-1.5-1.5v-9.34c0-0.83,0.67-1.5,1.5-1.5s1.5,0.67,1.5,1.5v9.34
				C586.05,434.47,585.38,435.14,584.55,435.14z"/>
		</g>
		<g>
			<path class="st0" d="M584.55,645.53c-0.83,0-1.5-0.67-1.5-1.5v-17.53c0-0.83,0.67-1.5,1.5-1.5s1.5,0.67,1.5,1.5v17.53
				C586.05,644.85,585.38,645.53,584.55,645.53z M584.55,610.46c-0.83,0-1.5-0.67-1.5-1.5v-17.53c0-0.83,0.67-1.5,1.5-1.5
				s1.5,0.67,1.5,1.5v17.53C586.05,609.79,585.38,610.46,584.55,610.46z M584.55,575.4c-0.83,0-1.5-0.67-1.5-1.5v-17.53
				c0-0.83,0.67-1.5,1.5-1.5s1.5,0.67,1.5,1.5v17.53C586.05,574.73,585.38,575.4,584.55,575.4z M584.55,540.33
				c-0.83,0-1.5-0.67-1.5-1.5V521.3c0-0.83,0.67-1.5,1.5-1.5s1.5,0.67,1.5,1.5v17.53C586.05,539.66,585.38,540.33,584.55,540.33z
				 M584.55,505.27c-0.83,0-1.5-0.67-1.5-1.5v-17.53c0-0.83,0.67-1.5,1.5-1.5s1.5,0.67,1.5,1.5v17.53
				C586.05,504.6,585.38,505.27,584.55,505.27z M584.55,470.21c-0.83,0-1.5-0.67-1.5-1.5v-17.53c0-0.83,0.67-1.5,1.5-1.5
				s1.5,0.67,1.5,1.5v17.53C586.05,469.54,585.38,470.21,584.55,470.21z"/>
		</g>
		<g>
			<path class="st0" d="M584.55,672.4c-0.83,0-1.5-0.67-1.5-1.5v-9.34c0-0.83,0.67-1.5,1.5-1.5s1.5,0.67,1.5,1.5v9.34
				C586.05,671.73,585.38,672.4,584.55,672.4z"/>
		</g>
	</g>
	<g>
		<path class="st0" d="M981.81,708.44H776.3c-0.83,0-1.5-0.67-1.5-1.5s0.67-1.5,1.5-1.5h205.51c0.83,0,1.5,0.67,1.5,1.5
			S982.63,708.44,981.81,708.44z"/>
	</g>
	<g>
		<path class="st0" d="M567.07,708.44H282.63c-0.83,0-1.5-0.67-1.5-1.5s0.67-1.5,1.5-1.5h284.44c0.83,0,1.5,0.67,1.5,1.5
			S567.9,708.44,567.07,708.44z"/>
	</g>
	<g>
		<g>
			<path class="st0" d="M95.37,708.44h-9.34c-0.83,0-1.5-0.67-1.5-1.5s0.67-1.5,1.5-1.5h9.34c0.83,0,1.5,0.67,1.5,1.5
				S96.2,708.44,95.37,708.44z"/>
		</g>
		<g>
			<path class="st0" d="M210.47,708.44h-19.18c-0.83,0-1.5-0.67-1.5-1.5s0.67-1.5,1.5-1.5h19.18c0.83,0,1.5,0.67,1.5,1.5
				S211.29,708.44,210.47,708.44z M172.1,708.44h-19.18c-0.83,0-1.5-0.67-1.5-1.5s0.67-1.5,1.5-1.5h19.18c0.83,0,1.5,0.67,1.5,1.5
				S172.93,708.44,172.1,708.44z M133.74,708.44h-19.18c-0.83,0-1.5-0.67-1.5-1.5s0.67-1.5,1.5-1.5h19.18c0.83,0,1.5,0.67,1.5,1.5
				S134.57,708.44,133.74,708.44z"/>
		</g>
		<g>
			<path class="st0" d="M238.99,708.44h-9.34c-0.83,0-1.5-0.67-1.5-1.5s0.67-1.5,1.5-1.5h9.34c0.83,0,1.5,0.67,1.5,1.5
				S239.82,708.44,238.99,708.44z"/>
		</g>
	</g>
	<g>
		<g>
			<path class="st0" d="M265.1,435.14c-0.83,0-1.5-0.67-1.5-1.5v-9.34c0-0.83,0.67-1.5,1.5-1.5s1.5,0.67,1.5,1.5v9.34
				C266.6,434.47,265.92,435.14,265.1,435.14z"/>
		</g>
		<g>
			<path class="st0" d="M265.1,645.53c-0.83,0-1.5-0.67-1.5-1.5v-17.53c0-0.83,0.67-1.5,1.5-1.5s1.5,0.67,1.5,1.5v17.53
				C266.6,644.85,265.92,645.53,265.1,645.53z M265.1,610.46c-0.83,0-1.5-0.67-1.5-1.5v-17.53c0-0.83,0.67-1.5,1.5-1.5
				s1.5,0.67,1.5,1.5v17.53C266.6,609.79,265.92,610.46,265.1,610.46z M265.1,575.4c-0.83,0-1.5-0.67-1.5-1.5v-17.53
				c0-0.83,0.67-1.5,1.5-1.5s1.5,0.67,1.5,1.5v17.53C266.6,574.73,265.92,575.4,265.1,575.4z M265.1,540.33
				c-0.83,0-1.5-0.67-1.5-1.5V521.3c0-0.83,0.67-1.5,1.5-1.5s1.5,0.67,1.5,1.5v17.53C266.6,539.66,265.92,540.33,265.1,540.33z
				 M265.1,505.27c-0.83,0-1.5-0.67-1.5-1.5v-17.53c0-0.83,0.67-1.5,1.5-1.5s1.5,0.67,1.5,1.5v17.53
				C266.6,504.6,265.92,505.27,265.1,505.27z M265.1,470.21c-0.83,0-1.5-0.67-1.5-1.5v-17.53c0-0.83,0.67-1.5,1.5-1.5
				s1.5,0.67,1.5,1.5v17.53C266.6,469.54,265.92,470.21,265.1,470.21z"/>
		</g>
		<g>
			<path class="st0" d="M265.1,672.4c-0.83,0-1.5-0.67-1.5-1.5v-9.34c0-0.83,0.67-1.5,1.5-1.5s1.5,0.67,1.5,1.5v9.34
				C266.6,671.73,265.92,672.4,265.1,672.4z"/>
		</g>
	</g>
	<g>
		<path class="st1" d="M246.25,541.7c-0.12,0-0.24-0.01-0.36-0.02c-1.65-0.2-2.82-1.69-2.62-3.34
			c0.14-1.14,13.94-114.97,38.61-227.33c33.42-152.22,70.17-229.4,109.23-229.4c47.13,0,95.18,111.16,146.04,228.85
			C585.01,421.2,634.5,535.7,677.68,535.7c24.65,0,62.55-38.98,103.12-224.68c24.49-112.08,38.13-225.62,38.26-226.76
			c0.19-1.65,1.68-2.82,3.33-2.62c1.65,0.2,2.82,1.69,2.62,3.33c-0.13,1.14-13.81,114.97-38.36,227.33
			c-33.25,152.22-69.92,229.4-108.98,229.4c-47.13,0-95.18-111.16-146.04-228.85C483.78,202.11,434.29,87.61,391.1,87.61
			c-24.65,0-62.59,38.97-103.36,224.65c-24.61,112.08-38.38,225.66-38.52,226.79C249.04,540.58,247.75,541.7,246.25,541.7z"/>
	</g>
	<g>
		<circle class="st2" cx="754.49" cy="424.3" r="6.78"/>
		<path d="M754.49,432.08c-4.29,0-7.78-3.49-7.78-7.78c0-4.29,3.49-7.78,7.78-7.78c4.29,0,7.78,3.49,7.78,7.78
			C762.28,428.59,758.78,432.08,754.49,432.08z M754.49,418.52c-3.19,0-5.78,2.59-5.78,5.78s2.59,5.78,5.78,5.78
			s5.78-2.59,5.78-5.78S757.68,418.52,754.49,418.52z"/>
	</g>
	<g>
		<circle class="st2" cx="584.55" cy="424.3" r="6.78"/>
		<path d="M584.55,432.08c-4.29,0-7.78-3.49-7.78-7.78c0-4.29,3.49-7.78,7.78-7.78c4.29,0,7.78,3.49,7.78,7.78
			C592.33,428.59,588.84,432.08,584.55,432.08z M584.55,418.52c-3.19,0-5.78,2.59-5.78,5.78s2.59,5.78,5.78,5.78
			s5.78-2.59,5.78-5.78S587.74,418.52,584.55,418.52z"/>
	</g>
	<g>
		<circle class="st2" cx="265.1" cy="424.23" r="6.78"/>
		<path d="M265.1,432.01c-4.29,0-7.78-3.49-7.78-7.78c0-4.29,3.49-7.78,7.78-7.78s7.78,3.49,7.78,7.78
			C272.88,428.52,269.39,432.01,265.1,432.01z M265.1,418.45c-3.19,0-5.78,2.59-5.78,5.78s2.59,5.78,5.78,5.78s5.78-2.59,5.78-5.78
			S268.28,418.45,265.1,418.45z"/>
	</g>
</g>
</svg>
